<svg width="65" height="65" viewBox="0 0 65 65" fill="none" xmlns="http://www.w3.org/2000/svg">
<g clip-path="url(#clip0_4_207)">
<path d="M0 16.25C0 7.27538 7.27538 0 16.25 0H48.75C57.7246 0 65 7.27538 65 16.25V48.75C65 57.7246 57.7246 65 48.75 65H16.25C7.27538 65 0 57.7246 0 48.75V16.25Z" fill="#333A4C"/>
<path fill-rule="evenodd" clip-rule="evenodd" d="M18.0522 21.7312C19.5452 19.6697 22.5484 16.3437 25.6465 14.6885C28.7447 13.0332 33.2777 11.6593 39.6814 12.1929C46.085 12.7264 49.4596 15.3518 51.1276 16.6591C52.7957 17.9665 54.9413 20.8118 56.1872 24.2476C57.4332 27.6834 58.4915 31.2916 58.502 36.7636C58.5126 42.2356 57.3655 46.6589 54.5092 49.1996C54.4369 49.2639 54.3641 49.3269 54.2903 49.3888C51.4491 51.7748 47.5289 52.4172 44.3305 51.2504C41.0492 50.0532 40.3197 48.9135 39.3539 46.5544C38.3882 44.1954 37.9796 40.5708 37.9746 38.0082C37.9717 36.5136 38.0215 35.801 38.0629 35.207C38.0925 34.7825 38.118 34.4187 38.1168 33.8735C38.1143 32.5652 37.2694 32.6544 37.1148 33.8374C36.9601 35.0204 36.8721 36.4782 36.8739 37.3688C36.876 38.5012 36.9599 41.4401 37.1326 43.0284C37.3052 44.6166 37.8241 47.0382 38.3403 48.1988C38.8566 49.3593 39.8404 50.763 39.8404 50.763C39.8404 50.763 37.6331 51.9081 33.288 51.976C28.9429 52.044 26.5152 52.0021 22.8927 51.6024C19.2704 51.2025 14.875 50.2472 11.9502 49.1185C9.02529 47.9898 7.54722 46.9522 5.47333 45.0824C3.39945 43.2127 1.72904 40.3813 3.66987 39.0752C5.30967 37.9717 6.02536 38.6247 6.75354 39.289C6.88722 39.411 7.02131 39.5333 7.16163 39.6453C7.26106 39.7246 7.37675 39.8242 7.50887 39.938C8.15942 40.4981 9.20842 41.4013 10.6777 41.9149C12.4454 42.5327 12.9849 42.5322 13.9179 41.921C14.9741 41.2292 14.7531 38.0534 14.6334 36.3328C14.6059 35.9382 14.5838 35.6202 14.5835 35.4262C14.5834 35.3055 14.5812 35.1505 14.5786 34.9667C14.5585 33.5661 14.5146 30.4903 15.1913 28.138C15.9569 25.4768 16.5592 23.7927 18.0522 21.7312ZM22.4903 40.1503C22.4592 39.9393 22.4429 39.7222 22.4429 39.5006C22.4429 37.4466 23.8382 35.7816 25.5594 35.7816C27.2805 35.7816 28.6759 37.4466 28.6759 39.5006C28.6759 41.0466 27.8854 42.3722 26.7605 42.9334C29.5433 42.906 31.7923 40.1308 31.7923 36.7114C31.7923 33.2749 29.5209 30.4891 26.719 30.4891C23.917 30.4891 21.6457 33.2749 21.6457 36.7114C21.6457 37.9828 21.9566 39.1652 22.4903 40.1503Z" fill="white"/>
</g>
<defs>
<clipPath id="clip0_4_207">
<rect width="65" height="65" fill="white"/>
</clipPath>
</defs>
</svg>
